<mxfile host="65bd71144e">
    <diagram id="BleGX_yLESVcZQEp3x3D" name="第 1 页">
        <mxGraphModel dx="667" dy="497" grid="1" gridSize="10" guides="1" tooltips="1" connect="1" arrows="1" fold="1" page="1" pageScale="1" pageWidth="827" pageHeight="1169" math="0" shadow="0">
            <root>
                <mxCell id="0"/>
                <mxCell id="1" parent="0"/>
                <mxCell id="2" value="信息源" style="rounded=0;whiteSpace=wrap;html=1;" vertex="1" parent="1">
                    <mxGeometry x="140" y="270" width="120" height="60" as="geometry"/>
                </mxCell>
                <mxCell id="3" value="&lt;h1&gt;内容生成流程&lt;/h1&gt;" style="text;html=1;strokeColor=none;fillColor=none;spacing=5;spacingTop=-20;whiteSpace=wrap;overflow=hidden;rounded=0;" vertex="1" parent="1">
                    <mxGeometry x="130" y="160" width="190" height="120" as="geometry"/>
                </mxCell>
                <mxCell id="4" value="信息源" style="rounded=0;whiteSpace=wrap;html=1;" vertex="1" parent="1">
                    <mxGeometry x="330" y="270" width="120" height="60" as="geometry"/>
                </mxCell>
            </root>
        </mxGraphModel>
    </diagram>
</mxfile>